<svg width="1459" height="1372" viewBox="0 0 1459 1372" fill="none" xmlns="http://www.w3.org/2000/svg">
<path fill-rule="evenodd" clip-rule="evenodd" d="M713.415 283.021L377 477.25V869.75L713.415 1063.98V283.021Z" fill="url(#paint0_linear_1_136)"/>
<line x1="719.915" y1="288.5" x2="719.915" y2="1058.5" stroke="url(#paint1_linear_1_136)" stroke-opacity="0.5" stroke-width="15" stroke-linecap="round"/>
<path d="M1002.41 584C1002.41 590.904 1008.01 596.5 1014.91 596.5C1021.82 596.5 1027.41 590.904 1027.41 584L1002.41 584ZM1002.41 514L1002.41 584L1027.41 584L1027.41 514L1002.41 514Z" fill="white"/>
<line x1="792.915" y1="398.5" x2="792.915" y2="685.5" stroke="white" stroke-width="25" stroke-linecap="round"/>
<line x1="857.915" y1="775.5" x2="857.915" y2="920.5" stroke="white" stroke-width="25" stroke-linecap="round"/>
<line x1="925.915" y1="690.5" x2="925.915" y2="762.5" stroke="white" stroke-width="25" stroke-linecap="round"/>
<g filter="url(#filter0_d_1_136)">
<path d="M1017.91 455L1056.45 477.25V521.75L1017.91 544L979.377 521.75V477.25L1017.91 455Z" fill="white"/>
<path d="M984.377 480.137L1017.91 460.774L1051.45 480.137V518.863L1017.91 538.227L984.377 518.863V480.137Z" stroke="white" stroke-width="10"/>
</g>
<g filter="url(#filter1_d_1_136)">
<path d="M858.415 897L896.52 919V963L858.415 985L820.31 963V919L858.415 897Z" fill="white"/>
<path d="M825.31 921.887L858.415 902.774L891.52 921.887V960.113L858.415 979.227L825.31 960.113V921.887Z" stroke="white" stroke-width="10"/>
</g>
<g filter="url(#filter2_d_1_136)">
<path d="M1024.91 741L1054.79 758.25V792.75L1024.91 810L995.037 792.75V758.25L1024.91 741Z" fill="white"/>
<path d="M1000.04 761.137L1024.91 746.774L1049.79 761.137V789.863L1024.91 804.227L1000.04 789.863V761.137Z" stroke="white" stroke-width="10"/>
</g>
<path d="M1014.41 599.5C1021.32 599.5 1026.91 593.904 1026.91 587C1026.91 580.096 1021.32 574.5 1014.41 574.5V599.5ZM1014.41 574.5H795.415V599.5H1014.41V574.5Z" fill="white"/>
<line x1="1018.91" y1="775.5" x2="857.915" y2="775.5" stroke="white" stroke-width="25" stroke-linecap="round"/>
<line x1="918.915" y1="690.5" x2="724.915" y2="690.5" stroke="white" stroke-width="25" stroke-linecap="square"/>
<g filter="url(#filter3_d_1_136)">
<path d="M794.915 327L836.917 351.25V399.75L794.915 424L752.913 399.75V351.25L794.915 327Z" fill="white"/>
<path d="M757.913 354.137L794.915 332.774L831.917 354.137V396.863L794.915 418.227L757.913 396.863V354.137Z" stroke="white" stroke-width="10"/>
</g>
<defs>
<filter id="filter0_d_1_136" x="959.377" y="439" width="117.076" height="129" filterUnits="userSpaceOnUse" color-interpolation-filters="sRGB">
<feFlood flood-opacity="0" result="BackgroundImageFix"/>
<feColorMatrix in="SourceAlpha" type="matrix" values="0 0 0 0 0 0 0 0 0 0 0 0 0 0 0 0 0 0 127 0" result="hardAlpha"/>
<feOffset dy="4"/>
<feGaussianBlur stdDeviation="10"/>
<feComposite in2="hardAlpha" operator="out"/>
<feColorMatrix type="matrix" values="0 0 0 0 0 0 0 0 0 0 0 0 0 0 0 0 0 0 0.15 0"/>
<feBlend mode="normal" in2="BackgroundImageFix" result="effect1_dropShadow_1_136"/>
<feBlend mode="normal" in="SourceGraphic" in2="effect1_dropShadow_1_136" result="shape"/>
</filter>
<filter id="filter1_d_1_136" x="800.31" y="881" width="116.21" height="128" filterUnits="userSpaceOnUse" color-interpolation-filters="sRGB">
<feFlood flood-opacity="0" result="BackgroundImageFix"/>
<feColorMatrix in="SourceAlpha" type="matrix" values="0 0 0 0 0 0 0 0 0 0 0 0 0 0 0 0 0 0 127 0" result="hardAlpha"/>
<feOffset dy="4"/>
<feGaussianBlur stdDeviation="10"/>
<feComposite in2="hardAlpha" operator="out"/>
<feColorMatrix type="matrix" values="0 0 0 0 0 0 0 0 0 0 0 0 0 0 0 0 0 0 0.15 0"/>
<feBlend mode="normal" in2="BackgroundImageFix" result="effect1_dropShadow_1_136"/>
<feBlend mode="normal" in="SourceGraphic" in2="effect1_dropShadow_1_136" result="shape"/>
</filter>
<filter id="filter2_d_1_136" x="975.037" y="725" width="99.7557" height="109" filterUnits="userSpaceOnUse" color-interpolation-filters="sRGB">
<feFlood flood-opacity="0" result="BackgroundImageFix"/>
<feColorMatrix in="SourceAlpha" type="matrix" values="0 0 0 0 0 0 0 0 0 0 0 0 0 0 0 0 0 0 127 0" result="hardAlpha"/>
<feOffset dy="4"/>
<feGaussianBlur stdDeviation="10"/>
<feComposite in2="hardAlpha" operator="out"/>
<feColorMatrix type="matrix" values="0 0 0 0 0 0 0 0 0 0 0 0 0 0 0 0 0 0 0.15 0"/>
<feBlend mode="normal" in2="BackgroundImageFix" result="effect1_dropShadow_1_136"/>
<feBlend mode="normal" in="SourceGraphic" in2="effect1_dropShadow_1_136" result="shape"/>
</filter>
<filter id="filter3_d_1_136" x="732.913" y="311" width="124.005" height="137" filterUnits="userSpaceOnUse" color-interpolation-filters="sRGB">
<feFlood flood-opacity="0" result="BackgroundImageFix"/>
<feColorMatrix in="SourceAlpha" type="matrix" values="0 0 0 0 0 0 0 0 0 0 0 0 0 0 0 0 0 0 127 0" result="hardAlpha"/>
<feOffset dy="4"/>
<feGaussianBlur stdDeviation="10"/>
<feComposite in2="hardAlpha" operator="out"/>
<feColorMatrix type="matrix" values="0 0 0 0 0 0 0 0 0 0 0 0 0 0 0 0 0 0 0.15 0"/>
<feBlend mode="normal" in2="BackgroundImageFix" result="effect1_dropShadow_1_136"/>
<feBlend mode="normal" in="SourceGraphic" in2="effect1_dropShadow_1_136" result="shape"/>
</filter>
<linearGradient id="paint0_linear_1_136" x1="545.415" y1="993" x2="717.415" y2="281" gradientUnits="userSpaceOnUse">
<stop stop-color="white"/>
<stop offset="0.294484" stop-color="#1CE783"/>
<stop offset="0.64907" stop-color="#00AC69"/>
</linearGradient>
<linearGradient id="paint1_linear_1_136" x1="727.915" y1="673.5" x2="711.415" y2="673.5" gradientUnits="userSpaceOnUse">
<stop stop-color="#1D252C" stop-opacity="0"/>
<stop offset="0.65185" stop-color="#1D252C" stop-opacity="0.3"/>
</linearGradient>
</defs>
</svg>
